P2
# This is white square in the middle of an image
10 10
255
  0   0   0   0   0   0   0   0   0   0
  0   0   0   0   0   0   0   0   0   0
  0   0   0   0   0   0   0   0   0   0
  0   0   0 255 255 255 255   0   0   0
  0   0   0 255 255 255 255   0   0   0
  0   0   0 255 255 255 255   0   0   0
  0   0   0 255 255 255 255   0   0   0
  0   0   0   0   0   0   0   0   0   0
  0   0   0   0   0   0   0   0   0   0
  0   0   0   0   0   0   0   0   0   0
