P2
# This is white square in the middle of an image
# after applying 3x3 box linear convolution
10 10
255
  0   0   0   0   0   0   0   0   0   0
  0   0   0   0   0   0   0   0   0   0
  0   0  28  57  85  85  57  28   0   0
  0   0  57 113 170 170 113  57   0   0
  0   0  85 170 255 255 170  85   0   0
  0   0  85 170 255 255 170  85   0   0
  0   0  57 113 170 170 113  57   0   0
  0   0  28  57  85  85  57  28   0   0
  0   0   0   0   0   0   0   0   0   0
  0   0   0   0   0   0   0   0   0   0
